<?xml version="1.0" encoding="UTF-8" standalone="no"?>
<svg
   xmlns:dc="http://purl.org/dc/elements/1.1/"
   xmlns:cc="http://creativecommons.org/ns#"
   xmlns:rdf="http://www.w3.org/1999/02/22-rdf-syntax-ns#"
   xmlns:svg="http://www.w3.org/2000/svg"
   xmlns="http://www.w3.org/2000/svg"
   xmlns:sodipodi="http://sodipodi.sourceforge.net/DTD/sodipodi-0.dtd"
   xmlns:inkscape="http://www.inkscape.org/namespaces/inkscape"
   version="1.1"
   width="16.757513"
   height="21.5814"
   id="svg3821"
   sodipodi:docname="globalnav.svg"
   inkscape:version="0.92.4 (unknown)">
  <metadata
     id="metadata3827">
    <rdf:RDF>
      <cc:Work
         rdf:about="">
        <dc:format>image/svg+xml</dc:format>
        <dc:type
           rdf:resource="http://purl.org/dc/dcmitype/StillImage" />
        <dc:title></dc:title>
      </cc:Work>
    </rdf:RDF>
  </metadata>
  <defs
     id="defs3825" />
  <sodipodi:namedview
     pagecolor="#ffffff"
     bordercolor="#666666"
     borderopacity="1"
     objecttolerance="10"
     gridtolerance="10"
     guidetolerance="10"
     inkscape:pageopacity="0"
     inkscape:pageshadow="2"
     inkscape:window-width="1920"
     inkscape:window-height="1021"
     id="namedview3823"
     showgrid="false"
     inkscape:zoom="18.695652"
     inkscape:cx="-21.599742"
     inkscape:cy="3.6519443"
     inkscape:window-x="0"
     inkscape:window-y="0"
     inkscape:window-maximized="1"
     inkscape:current-layer="svg3821"
     fit-margin-top="0"
     fit-margin-left="0"
     fit-margin-right="0"
     fit-margin-bottom="0" />
  <g
     id="g3802"
     transform="translate(-71.562487,-2.923)">
    <path
       d="M 85.559,13.858 C 85.537,11.254 87.684,10.002 87.786,9.942 86.576,8.171 84.69,7.928 84.016,7.9 82.414,7.738 80.891,8.844 80.078,8.844 c -0.813,0 -2.067,-0.921 -3.397,-0.896 -1.748,0.024 -3.357,1.016 -4.257,2.579 -1.815,3.148 -0.464,7.813 1.304,10.369 0.864,1.25 1.895,2.655 3.249,2.604 1.305,-0.051 1.797,-0.843 3.374,-0.843 1.574,0 2.018,0.843 3.396,0.817 1.401,-0.025 2.292,-1.275 3.149,-2.529 0.992,-1.45 1.396,-2.854 1.424,-2.927 -0.031,-0.009 -2.734,-1.045 -2.761,-4.16 z"
       id="path3798"
       inkscape:connector-curvature="0"
       style="fill-opacity: 0.5;" />
    <path
       d="m 82.967,6.21 c 0.719,-0.871 1.204,-2.082 1.07,-3.287 -1.035,0.042 -2.288,0.69 -3.032,1.561 -0.666,0.77 -1.249,2.003 -1.091,3.184 1.154,0.088 2.335,-0.588 3.053,-1.458 z"
       id="path3800"
       inkscape:connector-curvature="0"
       style="fill-opacity: 0.5;" />
  </g>
  <g
     id="g3819"
     transform="translate(-71.562487,-2.923)">
    <linearGradient
       id="SVGID_1_"
       gradientUnits="userSpaceOnUse"
       x1="541.94141"
       y1="701.88379"
       x2="541.94141"
       y2="717.50098"
       gradientTransform="translate(-462,-693)">
      <stop
         offset="0"
         style="stop-color: #f3f4f5;"
         id="stop3804" />
      <stop
         offset="0.3145"
         style="stop-color: #e6e7e8;"
         id="stop3806" />
      <stop
         offset="0.9005"
         style="stop-color: #c5c4c4;"
         id="stop3808" />
      <stop
         offset="0.9939"
         style="stop-color: #bfbebe;"
         id="stop3810" />
    </linearGradient>
    <path
       d="M 85.559,14.858 C 85.537,12.254 87.684,11.002 87.786,10.942 86.576,9.171 84.69,8.928 84.016,8.9 82.414,8.738 80.891,9.844 80.078,9.844 c -0.813,0 -2.067,-0.921 -3.397,-0.896 -1.748,0.024 -3.357,1.016 -4.257,2.579 -1.815,3.148 -0.464,7.813 1.304,10.369 0.864,1.25 1.895,2.655 3.249,2.604 1.305,-0.051 1.797,-0.843 3.374,-0.843 1.574,0 2.018,0.843 3.396,0.817 1.401,-0.025 2.292,-1.275 3.149,-2.529 0.992,-1.45 1.396,-2.854 1.424,-2.927 -0.031,-0.009 -2.734,-1.045 -2.761,-4.16 z"
       id="path3813"
       inkscape:connector-curvature="0"
       style="fill: url(#SVGID_1_);" />
    <path
       d="m 82.967,7.21 c 0.719,-0.871 1.204,-2.082 1.07,-3.287 -1.035,0.042 -2.288,0.69 -3.032,1.561 -0.666,0.77 -1.249,2.003 -1.091,3.184 1.154,0.088 2.335,-0.588 3.053,-1.458 z"
       id="path3815"
       inkscape:connector-curvature="0"
       style="fill: #f6f7f7;" />
    <path
       d="m 76.975,24.503 c 1.305,-0.051 1.797,-0.843 3.374,-0.843 1.574,0 2.018,0.843 3.396,0.817 1.401,-0.025 2.292,-1.275 3.149,-2.529 0.435,-0.634 0.758,-1.26 0.981,-1.771 -0.758,-0.012 -1.603,-0.021 -2.276,-0.021 -1.654,0 -2.31,-0.326 -5.421,-0.326 -3.115,0 -3.692,0.418 -5.229,0.533 -0.705,0.054 -1.466,0.058 -2.084,0.046 0.266,0.546 0.557,1.048 0.862,1.487 0.864,1.252 1.895,2.659 3.248,2.607 z"
       id="path3817"
       inkscape:connector-curvature="0"
       style="fill: #bfbebe;" />
  </g>
</svg>
